<?xml version="1.0" encoding="UTF-8"?><svg id="buttons" xmlns="http://www.w3.org/2000/svg" viewBox="0 0 140 140"><defs><style>.cls-1{fill:#231f20;}.cls-2{fill:#fec111;}</style></defs><g id="ACTIVE"><path class="cls-2" d="M125,70c0-30.327-24.673-55-55-55S15,39.673,15,70h10c0-24.853,20.147-45,45-45s45,20.147,45,45h10Z"/><path class="cls-1" d="M35.694,76.292l-1.021,5.235h-4.317l4.964-22.913h5.337l4.454,22.913h-4.317l-.986-5.235h-4.113ZM39.399,72.824l-.748-4.793c-.237-1.394-.544-3.672-.747-5.202h-.103c-.238,1.53-.578,3.91-.815,5.235l-.851,4.759h3.264Z"/><path class="cls-1" d="M58.065,81.188c-.646.306-1.904.544-3.468.544-5.848,0-8.635-4.827-8.635-11.32,0-8.635,4.793-12.001,9.247-12.001,1.563,0,2.651.306,3.093.612l-.747,3.74c-.511-.238-1.088-.442-2.074-.442-2.516,0-4.794,2.176-4.794,7.853,0,5.474,2.074,7.615,4.794,7.615.748,0,1.598-.17,2.142-.34l.442,3.739Z"/><path class="cls-1" d="M63.812,62.728h-4.046v-4.113h12.579v4.113h-4.079v18.8h-4.454v-18.8Z"/><path class="cls-1" d="M79.146,58.614v22.913h-4.454v-22.913h4.454Z"/><path class="cls-1" d="M86.319,81.527l-5.134-22.913h4.93l1.632,9.893c.408,2.448.884,5.269,1.189,7.955h.068c.306-2.72.68-5.473,1.088-8.057l1.563-9.791h4.896l-5.235,22.913h-4.997Z"/><path class="cls-1" d="M108.18,71.465h-5.235v6.188h5.915v3.875h-10.369v-22.913h9.961v3.875h-5.507v5.27h5.235v3.706Z"/></g></svg>