<?xml version="1.0" encoding="UTF-8"?><svg id="buttons" xmlns="http://www.w3.org/2000/svg" viewBox="0 0 140 140"><defs><style>.cls-1{fill:#231f20;}.cls-2{fill:#be2026;}</style></defs><g id="DONE"><path class="cls-2" d="M115,70c0,24.853-20.147,45-45,45s-45-20.147-45-45h-10c0,30.327,24.673,55,55,55s55-24.673,55-55h-10Z"/><path class="cls-2" d="M125,70c0-30.327-24.673-55-55-55S15,39.673,15,70h10c0-24.853,20.147-45,45-45s45,20.147,45,45h10Z"/><path class="cls-1" d="M32.721,58.897c1.056-.256,2.592-.416,4.255-.416,2.721,0,4.608.64,5.984,1.92,1.855,1.664,2.815,4.512,2.815,8.704,0,4.351-1.12,7.455-3.008,9.119-1.439,1.408-3.584,2.08-6.592,2.08-1.312,0-2.623-.128-3.455-.224v-21.183ZM36.912,76.816c.192.063.512.063.736.063,2.016,0,3.775-1.983,3.775-7.935,0-4.416-1.152-7.104-3.68-7.104-.288,0-.576,0-.832.096v14.879Z"/><path class="cls-1" d="M57.552,70.673h-4.928v5.823h5.567v3.647h-9.759v-21.566h9.375v3.647h-5.184v4.96h4.928v3.488Z"/><path class="cls-1" d="M61.04,58.578h4.191v18.014h5.536v3.552h-9.728v-21.566Z"/><path class="cls-1" d="M82.319,70.673h-4.928v5.823h5.567v3.647h-9.759v-21.566h9.375v3.647h-5.184v4.96h4.928v3.488Z"/><path class="cls-1" d="M88.144,62.449h-3.808v-3.872h11.839v3.872h-3.84v17.694h-4.191v-17.694Z"/><path class="cls-1" d="M107.503,70.673h-4.928v5.823h5.567v3.647h-9.76v-21.566h9.376v3.647h-5.184v4.96h4.928v3.488Z"/></g></svg>