<?xml version="1.0" encoding="UTF-8"?><svg id="Layer_12" xmlns="http://www.w3.org/2000/svg" viewBox="0 0 140 140"><defs><style>.cls-1{fill:#231f20;}.cls-2{fill:#00834b;}</style></defs><path class="cls-2" d="M115,70c0,24.853-20.147,45-45,45s-45-20.147-45-45h-10c0,30.327,24.673,55,55,55s55-24.673,55-55h-10Z"/><path class="cls-2" d="M125,70c0-30.327-24.673-55-55-55S15,39.673,15,70h10c0-24.853,20.147-45,45-45s45,20.147,45,45h10Z"/><path class="cls-1" d="M42.97,58.954c1.021-.306,2.21-.442,3.536-.442,2.414,0,4.113.612,5.371,1.734,1.769,1.53,3.094,4.487,3.094,9.281,0,5.236-1.292,8.091-2.754,9.655-1.495,1.7-3.671,2.481-6.323,2.481-1.054,0-2.142-.067-2.924-.237v-22.472ZM45.588,79.386c.374.068.748.068.986.068,2.89,0,5.677-2.074,5.677-9.859,0-5.78-1.768-8.941-5.439-8.941-.407,0-.884.034-1.224.136v18.596Z"/><path class="cls-1" d="M70.135,69.901c0,8.601-2.958,11.899-6.629,11.899-3.808,0-6.357-4.046-6.357-11.763,0-7.582,2.72-11.695,6.731-11.695,3.909,0,6.255,4.25,6.255,11.559ZM59.868,70.071c0,4.725.918,9.417,3.808,9.417,2.957,0,3.739-4.997,3.739-9.484,0-4.284-.782-9.349-3.773-9.349-2.855,0-3.773,4.76-3.773,9.417Z"/><path class="cls-1" d="M73.264,81.527v-22.913h2.482l4.216,10.743c.951,2.448,2.142,5.507,2.923,7.989h.068c-.204-3.604-.306-6.561-.306-10.539v-8.193h2.346v22.913h-2.482l-4.352-11.014c-.917-2.312-1.903-4.93-2.72-7.786h-.067c.204,3.06.271,5.983.271,10.879v7.921h-2.38Z"/><path class="cls-1" d="M97.438,70.649h-5.745v8.601h6.526v2.277h-9.145v-22.913h8.737v2.278h-6.119v7.547h5.745v2.21Z"/></svg>