<?xml version="1.0" encoding="UTF-8"?><svg id="buttons" xmlns="http://www.w3.org/2000/svg" viewBox="0 0 140 140"><defs><style>.cls-1{fill:#231f20;}.cls-2{fill:#00834b;}</style></defs><g id="DONE"><path class="cls-2" d="M115,70c0,24.853-20.147,45-45,45s-45-20.147-45-45h-10c0,30.327,24.673,55,55,55s55-24.673,55-55h-10Z"/><path class="cls-2" d="M125,70c0-30.327-24.673-55-55-55S15,39.673,15,70h10c0-24.853,20.147-45,45-45s45,20.147,45,45h10Z"/><path class="cls-1" d="M39.979,58.954c1.122-.272,2.754-.442,4.521-.442,2.89,0,4.896.68,6.357,2.04,1.972,1.768,2.991,4.793,2.991,9.247,0,4.623-1.189,7.921-3.195,9.688-1.53,1.496-3.808,2.21-7.003,2.21-1.395,0-2.788-.136-3.672-.237v-22.506ZM44.432,77.992c.204.067.544.067.782.067,2.142,0,4.012-2.107,4.012-8.431,0-4.691-1.224-7.547-3.91-7.547-.306,0-.611,0-.884.102v15.809Z"/><path class="cls-1" d="M70.203,69.663c0,8.635-3.06,12.137-7.411,12.137-5.202,0-7.241-5.508-7.241-11.797,0-6.255,2.481-11.661,7.547-11.661,5.541,0,7.105,6.085,7.105,11.321ZM60.174,70.071c0,5.202.986,7.853,2.788,7.853,1.869,0,2.583-3.399,2.583-8.057,0-4.012-.611-7.649-2.617-7.649-1.768,0-2.754,2.924-2.754,7.853Z"/><path class="cls-1" d="M73.025,81.527v-22.913h4.08l3.535,8.975c.681,1.768,1.802,4.725,2.448,6.697h.067c-.136-2.414-.441-6.391-.441-10.606v-5.065h3.909v22.913h-4.079l-3.502-8.703c-.748-1.938-1.802-4.827-2.312-6.901h-.068c.103,2.312.272,5.847.272,10.437v5.167h-3.91Z"/><path class="cls-1" d="M100.259,71.465h-5.235v6.188h5.915v3.875h-10.369v-22.913h9.961v3.875h-5.507v5.27h5.235v3.706Z"/></g></svg>