<?xml version="1.0" encoding="UTF-8"?><svg id="Layer_12" xmlns="http://www.w3.org/2000/svg" viewBox="0 0 140 140"><defs><style>.cls-1{fill:#1a76bb;}.cls-2{fill:#231f20;}.cls-3{fill:#fff;}</style></defs><circle class="cls-3" cx="70" cy="70" r="45"/><path class="cls-1" d="M115,70c0,24.853-20.147,45-45,45s-45-20.147-45-45h-10c0,30.327,24.673,55,55,55s55-24.673,55-55h-10Z"/><path class="cls-2" d="M37.734,58.954c1.122-.306,2.481-.442,3.773-.442,2.278,0,3.978.476,5.167,1.632,1.122,1.156,1.598,2.686,1.598,4.487,0,2.924-1.36,4.828-3.671,5.882v.068c1.7.51,2.583,2.142,3.094,5.133.51,3.162.986,5.1,1.292,5.813h-2.651c-.34-.68-.782-2.855-1.224-5.677-.51-3.128-1.496-4.318-3.74-4.318h-1.02v9.995h-2.618v-22.573ZM40.352,69.527h1.088c2.516,0,4.181-1.835,4.181-4.589,0-2.652-1.088-4.284-3.909-4.317-.51,0-1.02.034-1.36.136v8.771Z"/><path class="cls-2" d="M60.003,70.649h-5.745v8.601h6.527v2.277h-9.146v-22.913h8.737v2.278h-6.119v7.547h5.745v2.21Z"/><path class="cls-2" d="M66.429,74.66l-1.53,6.867h-2.516l5.235-22.913h2.89l5.1,22.913h-2.584l-1.529-6.867h-5.066ZM71.155,72.553l-1.19-5.813c-.34-1.632-.646-3.536-.918-5.235h-.136c-.272,1.734-.612,3.706-.918,5.235l-1.19,5.813h4.352Z"/><path class="cls-2" d="M78.466,58.954c1.02-.306,2.21-.442,3.535-.442,2.414,0,4.114.612,5.372,1.734,1.768,1.53,3.094,4.487,3.094,9.281,0,5.236-1.292,8.091-2.754,9.655-1.496,1.7-3.672,2.481-6.323,2.481-1.054,0-2.142-.067-2.924-.237v-22.472ZM81.084,79.386c.373.068.747.068.985.068,2.89,0,5.678-2.074,5.678-9.859,0-5.78-1.768-8.941-5.439-8.941-.408,0-.884.034-1.224.136v18.596Z"/><path class="cls-2" d="M96.281,81.527v-9.688l-5.031-13.225h2.753l2.04,5.745c.578,1.598,1.19,3.4,1.7,5.167h.067c.477-1.768,1.055-3.501,1.666-5.27l1.938-5.643h2.753l-5.27,13.122v9.791h-2.617Z"/></svg>