<?xml version="1.0" encoding="UTF-8"?><svg id="buttons" xmlns="http://www.w3.org/2000/svg" viewBox="0 0 140 140"><defs><style>.cls-1{fill:#1a76bb;}.cls-2{fill:#231f20;}.cls-3{fill:#fff;}</style></defs><g id="READY"><circle class="cls-3" cx="70" cy="70" r="45"/><path class="cls-1" d="M25,70h-10c0,30.327,24.673,55,55,55s55-24.673,55-55H25Z"/><path class="cls-2" d="M34.317,40.954c1.394-.272,3.162-.442,4.862-.442,2.448,0,4.624.34,6.119,1.7,1.394,1.258,1.802,2.788,1.802,4.76,0,2.448-1.19,4.657-3.536,5.745v.068c1.564.612,2.346,2.074,2.788,4.522.442,2.549,1.054,5.371,1.462,6.221h-4.657c-.272-.646-.782-2.957-1.122-5.474-.408-2.855-1.122-3.671-2.618-3.671h-.646v9.145h-4.454v-22.573ZM38.771,50.949h.782c1.938,0,3.06-1.564,3.06-3.57,0-1.938-.782-3.332-2.788-3.399-.374,0-.815.034-1.054.136v6.833Z"/><path class="cls-2" d="M59.985,53.465h-5.235v6.188h5.916v3.875h-10.369v-22.913h9.961v3.875h-5.507v5.27h5.235v3.706Z"/><path class="cls-2" d="M67.33,58.292l-1.02,5.235h-4.317l4.963-22.913h5.338l4.453,22.913h-4.317l-.985-5.235h-4.114ZM71.036,54.824l-.748-4.793c-.238-1.394-.544-3.672-.748-5.202h-.102c-.238,1.53-.578,3.91-.816,5.235l-.85,4.759h3.264Z"/><path class="cls-2" d="M79.265,40.954c1.122-.272,2.754-.442,4.521-.442,2.89,0,4.896.68,6.357,2.04,1.972,1.768,2.991,4.793,2.991,9.247,0,4.623-1.189,7.921-3.195,9.688-1.53,1.496-3.808,2.21-7.003,2.21-1.395,0-2.788-.136-3.672-.237v-22.506ZM83.718,59.992c.204.067.544.067.782.067,2.142,0,4.012-2.107,4.012-8.431,0-4.691-1.224-7.547-3.91-7.547-.306,0-.611,0-.884.102v15.809Z"/><path class="cls-2" d="M98.508,63.527v-8.771l-5.031-14.143h4.76l1.563,5.473c.408,1.462.85,3.162,1.189,4.862h.068c.271-1.666.646-3.332,1.054-4.963l1.36-5.372h4.623l-5.133,13.973v8.94h-4.454Z"/></g></svg>