<?xml version="1.0" encoding="UTF-8"?><svg id="Layer_13" xmlns="http://www.w3.org/2000/svg" viewBox="0 0 140 140"><defs><style>.cls-1{fill:#be2026;}</style></defs><path class="cls-1" d="M70,110c-11.167,0-20.625-3.875-28.375-11.625-7.75-7.75-11.625-17.208-11.625-28.375s3.875-20.625,11.625-28.375c7.75-7.75,17.208-11.625,28.375-11.625,5.75,0,11.25,1.187,16.5,3.563,5.25,2.375,9.75,5.771,13.5,10.187v-13.75h10v35h-35v-10h21c-2.667-4.667-6.312-8.333-10.938-11-4.625-2.667-9.646-4-15.062-4-8.333,0-15.417,2.917-21.25,8.75s-8.75,12.917-8.75,21.25,2.917,15.417,8.75,21.25,12.917,8.75,21.25,8.75c6.417,0,12.208-1.833,17.375-5.5,5.167-3.667,8.792-8.5,10.875-14.5h10.5c-2.333,8.833-7.083,16.042-14.25,21.625-7.167,5.583-15.333,8.375-24.5,8.375Z"/></svg>