<?xml version="1.0" encoding="UTF-8"?><svg id="Layer_12" xmlns="http://www.w3.org/2000/svg" viewBox="0 0 140 140"><defs><style>.cls-1{fill:#1a76bb;}.cls-2{fill:#231f20;}.cls-3{fill:#fec111;}</style></defs><path class="cls-1" d="M115,70c0,24.853-20.147,45-45,45s-45-20.147-45-45h-10c0,30.327,24.673,55,55,55s55-24.673,55-55h-10Z"/><path class="cls-3" d="M125,70c0-30.327-24.673-55-55-55S15,39.673,15,70h10c0-24.853,20.147-45,45-45s45,20.147,45,45h10Z"/><path class="cls-2" d="M38.67,74.66l-1.53,6.867h-2.516l5.235-22.913h2.89l5.1,22.913h-2.584l-1.529-6.867h-5.065ZM43.396,72.553l-1.19-5.813c-.34-1.632-.646-3.536-.918-5.235h-.136c-.271,1.734-.612,3.706-.918,5.235l-1.189,5.813h4.352Z"/><path class="cls-2" d="M60.021,81.119c-.714.374-1.836.612-3.264.612-4.487,0-7.684-3.604-7.684-11.389,0-9.043,4.487-11.933,8.092-11.933,1.394,0,2.379.272,2.855.578l-.578,2.209c-.544-.238-1.122-.476-2.312-.476-2.448,0-5.304,2.379-5.304,9.383s2.584,9.315,5.371,9.315c.986,0,1.87-.238,2.414-.51l.408,2.209Z"/><path class="cls-2" d="M65.699,60.96h-4.182v-2.346h10.981v2.346h-4.182v20.567h-2.618v-20.567Z"/><path class="cls-2" d="M77.667,58.614v22.913h-2.618v-22.913h2.618Z"/><path class="cls-2" d="M85.555,81.527l-5.235-22.913h2.787l2.244,10.743c.544,2.583,1.224,5.881,1.632,8.805h.102c.341-2.958.986-6.153,1.53-8.873l2.176-10.675h2.788l-5.338,22.913h-2.686Z"/><path class="cls-2" d="M104.492,70.649h-5.746v8.601h6.527v2.277h-9.145v-22.913h8.737v2.278h-6.12v7.547h5.746v2.21Z"/></svg>